<?xml version="1.0" encoding="UTF-8" standalone="no"?>
<!DOCTYPE svg PUBLIC "-//W3C//DTD SVG 1.1//EN"
 "http://www.w3.org/Graphics/SVG/1.1/DTD/svg11.dtd">
<!-- Generated by graphviz version 2.26.3 (20100126.1600)
 -->
<!-- Title: G Pages: 1 -->
<svg width="1142pt" height="206pt"
 viewBox="0.00 0.00 1142.00 206.00" xmlns="http://www.w3.org/2000/svg" xmlns:xlink="http://www.w3.org/1999/xlink">
<g id="graph1" class="graph" transform="scale(1 1) rotate(0) translate(4 202)">
<title>G</title>
<polygon fill="white" stroke="white" points="-4,5 -4,-202 1139,-202 1139,5 -4,5"/>
<!-- 0 -->
<g id="node1" class="node"><title>0</title>
<ellipse fill="none" stroke="black" cx="27" cy="-33" rx="27" ry="18"/>
<text text-anchor="middle" x="27" y="-28.9" font-family="Times Roman,serif" font-size="14.00">0</text>
</g>
<!-- 2 -->
<g id="node3" class="node"><title>2</title>
<ellipse fill="none" stroke="black" cx="117" cy="-46" rx="27" ry="18"/>
<text text-anchor="middle" x="117" y="-41.9" font-family="Times Roman,serif" font-size="14.00">2</text>
</g>
<!-- 0&#45;&gt;2 -->
<g id="edge2" class="edge"><title>0&#45;&gt;2</title>
<path fill="none" stroke="black" d="M53.5162,-36.8301C61.955,-38.049 71.4434,-39.4196 80.4615,-40.7222"/>
<polygon fill="black" stroke="black" points="79.9647,-44.1867 90.3623,-42.1523 80.9654,-37.2586 79.9647,-44.1867"/>
</g>
<!-- 1 -->
<g id="node4" class="node"><title>1</title>
<ellipse fill="none" stroke="black" cx="207" cy="-46" rx="27" ry="18"/>
<text text-anchor="middle" x="207" y="-41.9" font-family="Times Roman,serif" font-size="14.00">1</text>
</g>
<!-- 2&#45;&gt;1 -->
<g id="edge6" class="edge"><title>2&#45;&gt;1</title>
<path fill="none" stroke="black" d="M144.003,-46C152.028,-46 160.967,-46 169.531,-46"/>
<polygon fill="black" stroke="black" points="169.705,-49.5001 179.705,-46 169.705,-42.5001 169.705,-49.5001"/>
</g>
<!-- 13 -->
<g id="node6" class="node"><title>13</title>
<ellipse fill="none" stroke="black" cx="297" cy="-46" rx="27" ry="18"/>
<text text-anchor="middle" x="297" y="-41.9" font-family="Times Roman,serif" font-size="14.00">13</text>
</g>
<!-- 1&#45;&gt;13 -->
<g id="edge4" class="edge"><title>1&#45;&gt;13</title>
<path fill="none" stroke="black" d="M234.003,-46C242.028,-46 250.967,-46 259.531,-46"/>
<polygon fill="black" stroke="black" points="259.705,-49.5001 269.705,-46 259.705,-42.5001 259.705,-49.5001"/>
</g>
<!-- 11 -->
<g id="node27" class="node"><title>11</title>
<ellipse fill="none" stroke="black" cx="387" cy="-46" rx="27" ry="18"/>
<text text-anchor="middle" x="387" y="-41.9" font-family="Times Roman,serif" font-size="14.00">11</text>
</g>
<!-- 13&#45;&gt;11 -->
<g id="edge28" class="edge"><title>13&#45;&gt;11</title>
<path fill="none" stroke="black" d="M324.003,-46C332.028,-46 340.967,-46 349.531,-46"/>
<polygon fill="black" stroke="black" points="349.705,-49.5001 359.705,-46 349.705,-42.5001 349.705,-49.5001"/>
</g>
<!-- 3 -->
<g id="node8" class="node"><title>3</title>
<ellipse fill="none" stroke="black" cx="27" cy="-108" rx="27" ry="18"/>
<text text-anchor="middle" x="27" y="-103.9" font-family="Times Roman,serif" font-size="14.00">3</text>
</g>
<!-- 5 -->
<g id="node10" class="node"><title>5</title>
<ellipse fill="none" stroke="black" cx="117" cy="-142" rx="27" ry="18"/>
<text text-anchor="middle" x="117" y="-137.9" font-family="Times Roman,serif" font-size="14.00">5</text>
</g>
<!-- 3&#45;&gt;5 -->
<g id="edge8" class="edge"><title>3&#45;&gt;5</title>
<path fill="none" stroke="black" d="M50.6464,-116.933C60.6948,-120.729 72.5924,-125.224 83.5187,-129.352"/>
<polygon fill="black" stroke="black" points="82.6074,-132.749 93.199,-133.009 85.0812,-126.2 82.6074,-132.749"/>
</g>
<!-- 15 -->
<g id="node14" class="node"><title>15</title>
<ellipse fill="none" stroke="black" cx="207" cy="-142" rx="27" ry="18"/>
<text text-anchor="middle" x="207" y="-137.9" font-family="Times Roman,serif" font-size="14.00">15</text>
</g>
<!-- 5&#45;&gt;15 -->
<g id="edge12" class="edge"><title>5&#45;&gt;15</title>
<path fill="none" stroke="black" d="M144.003,-142C152.028,-142 160.967,-142 169.531,-142"/>
<polygon fill="black" stroke="black" points="169.705,-145.5 179.705,-142 169.705,-138.5 169.705,-145.5"/>
</g>
<!-- 4 -->
<g id="node11" class="node"><title>4</title>
<ellipse fill="none" stroke="black" cx="1107" cy="-119" rx="27" ry="18"/>
<text text-anchor="middle" x="1107" y="-114.9" font-family="Times Roman,serif" font-size="14.00">4</text>
</g>
<!-- 4&#45;&gt;3 -->
<g id="edge10" class="edge"><title>4&#45;&gt;3</title>
<path fill="none" stroke="black" d="M1081.2,-113.608C1046.37,-106.809 982.29,-96 927,-96 207,-96 207,-96 207,-96 157.4,-96 100.283,-100.592 63.9303,-104.095"/>
<polygon fill="black" stroke="black" points="63.407,-100.63 53.7992,-105.095 64.0947,-107.596 63.407,-100.63"/>
</g>
<!-- 7 -->
<g id="node18" class="node"><title>7</title>
<ellipse fill="none" stroke="black" cx="297" cy="-142" rx="27" ry="18"/>
<text text-anchor="middle" x="297" y="-137.9" font-family="Times Roman,serif" font-size="14.00">7</text>
</g>
<!-- 15&#45;&gt;7 -->
<g id="edge32" class="edge"><title>15&#45;&gt;7</title>
<path fill="none" stroke="black" d="M234.003,-142C242.028,-142 250.967,-142 259.531,-142"/>
<polygon fill="black" stroke="black" points="259.705,-145.5 269.705,-142 259.705,-138.5 259.705,-145.5"/>
</g>
<!-- 6 -->
<g id="node15" class="node"><title>6</title>
<ellipse fill="none" stroke="black" cx="747" cy="-142" rx="27" ry="18"/>
<text text-anchor="middle" x="747" y="-137.9" font-family="Times Roman,serif" font-size="14.00">6</text>
</g>
<!-- 14 -->
<g id="node17" class="node"><title>14</title>
<ellipse fill="none" stroke="black" cx="837" cy="-142" rx="27" ry="18"/>
<text text-anchor="middle" x="837" y="-137.9" font-family="Times Roman,serif" font-size="14.00">14</text>
</g>
<!-- 6&#45;&gt;14 -->
<g id="edge14" class="edge"><title>6&#45;&gt;14</title>
<path fill="none" stroke="black" d="M774.003,-142C782.028,-142 790.967,-142 799.531,-142"/>
<polygon fill="black" stroke="black" points="799.705,-145.5 809.705,-142 799.705,-138.5 799.705,-145.5"/>
</g>
<!-- 9 -->
<g id="node23" class="node"><title>9</title>
<ellipse fill="none" stroke="black" cx="927" cy="-142" rx="27" ry="18"/>
<text text-anchor="middle" x="927" y="-137.9" font-family="Times Roman,serif" font-size="14.00">9</text>
</g>
<!-- 14&#45;&gt;9 -->
<g id="edge30" class="edge"><title>14&#45;&gt;9</title>
<path fill="none" stroke="black" d="M864.003,-142C872.028,-142 880.967,-142 889.531,-142"/>
<polygon fill="black" stroke="black" points="889.705,-145.5 899.705,-142 889.705,-138.5 889.705,-145.5"/>
</g>
<!-- 12 -->
<g id="node20" class="node"><title>12</title>
<ellipse fill="none" stroke="black" cx="387" cy="-142" rx="27" ry="18"/>
<text text-anchor="middle" x="387" y="-137.9" font-family="Times Roman,serif" font-size="14.00">12</text>
</g>
<!-- 7&#45;&gt;12 -->
<g id="edge16" class="edge"><title>7&#45;&gt;12</title>
<path fill="none" stroke="black" d="M324.003,-142C332.028,-142 340.967,-142 349.531,-142"/>
<polygon fill="black" stroke="black" points="349.705,-145.5 359.705,-142 349.705,-138.5 349.705,-145.5"/>
</g>
<!-- 16 -->
<g id="node31" class="node"><title>16</title>
<ellipse fill="none" stroke="black" cx="477" cy="-142" rx="27" ry="18"/>
<text text-anchor="middle" x="477" y="-137.9" font-family="Times Roman,serif" font-size="14.00">16</text>
</g>
<!-- 12&#45;&gt;16 -->
<g id="edge26" class="edge"><title>12&#45;&gt;16</title>
<path fill="none" stroke="black" d="M414.003,-142C422.028,-142 430.967,-142 439.531,-142"/>
<polygon fill="black" stroke="black" points="439.705,-145.5 449.705,-142 439.705,-138.5 439.705,-145.5"/>
</g>
<!-- 8 -->
<g id="node21" class="node"><title>8</title>
<ellipse fill="none" stroke="black" cx="27" cy="-162" rx="27" ry="18"/>
<text text-anchor="middle" x="27" y="-157.9" font-family="Times Roman,serif" font-size="14.00">8</text>
</g>
<!-- 8&#45;&gt;8 -->
<g id="edge18" class="edge"><title>8&#45;&gt;8</title>
<path fill="none" stroke="black" d="M11.7729,-177.167C7.15869,-187.664 12.2344,-198 27,-198 36.9207,-198 42.4671,-193.334 43.6394,-187.088"/>
<polygon fill="black" stroke="black" points="47.1015,-186.574 42.2271,-177.167 40.1713,-187.56 47.1015,-186.574"/>
</g>
<!-- 10 -->
<g id="node25" class="node"><title>10</title>
<ellipse fill="none" stroke="black" cx="1017" cy="-142" rx="27" ry="18"/>
<text text-anchor="middle" x="1017" y="-137.9" font-family="Times Roman,serif" font-size="14.00">10</text>
</g>
<!-- 9&#45;&gt;10 -->
<g id="edge20" class="edge"><title>9&#45;&gt;10</title>
<path fill="none" stroke="black" d="M954.003,-142C962.028,-142 970.967,-142 979.531,-142"/>
<polygon fill="black" stroke="black" points="979.705,-145.5 989.705,-142 979.705,-138.5 979.705,-145.5"/>
</g>
<!-- 10&#45;&gt;4 -->
<g id="edge22" class="edge"><title>10&#45;&gt;4</title>
<path fill="none" stroke="black" d="M1042.55,-135.471C1051.65,-133.144 1062.07,-130.482 1071.84,-127.986"/>
<polygon fill="black" stroke="black" points="1072.88,-131.333 1081.7,-125.466 1071.14,-124.551 1072.88,-131.333"/>
</g>
<!-- 19 -->
<g id="node29" class="node"><title>19</title>
<ellipse fill="none" stroke="black" cx="477" cy="-23" rx="27" ry="18"/>
<text text-anchor="middle" x="477" y="-18.9" font-family="Times Roman,serif" font-size="14.00">19</text>
</g>
<!-- 11&#45;&gt;19 -->
<g id="edge24" class="edge"><title>11&#45;&gt;19</title>
<path fill="none" stroke="black" d="M412.55,-39.4706C421.652,-37.1444 432.07,-34.4822 441.837,-31.9861"/>
<polygon fill="black" stroke="black" points="442.876,-35.3332 451.698,-29.4661 441.143,-28.5511 442.876,-35.3332"/>
</g>
<!-- 19&#45;&gt;0 -->
<g id="edge40" class="edge"><title>19&#45;&gt;0</title>
<path fill="none" stroke="black" d="M451.199,-17.6075C416.367,-10.8094 352.29,-7.10543e-15 297,-0 207,-0 207,-0 207,-0 155.818,-0 97.7718,-13.0681 61.7688,-22.7571"/>
<polygon fill="black" stroke="black" points="60.4889,-19.4793 51.7792,-25.5118 62.3498,-26.2275 60.4889,-19.4793"/>
</g>
<!-- 18 -->
<g id="node36" class="node"><title>18</title>
<ellipse fill="none" stroke="black" cx="567" cy="-142" rx="27" ry="18"/>
<text text-anchor="middle" x="567" y="-137.9" font-family="Times Roman,serif" font-size="14.00">18</text>
</g>
<!-- 16&#45;&gt;18 -->
<g id="edge34" class="edge"><title>16&#45;&gt;18</title>
<path fill="none" stroke="black" d="M504.003,-142C512.028,-142 520.967,-142 529.531,-142"/>
<polygon fill="black" stroke="black" points="529.705,-145.5 539.705,-142 529.705,-138.5 529.705,-145.5"/>
</g>
<!-- 17 -->
<g id="node37" class="node"><title>17</title>
<ellipse fill="none" stroke="black" cx="657" cy="-142" rx="27" ry="18"/>
<text text-anchor="middle" x="657" y="-137.9" font-family="Times Roman,serif" font-size="14.00">17</text>
</g>
<!-- 18&#45;&gt;17 -->
<g id="edge38" class="edge"><title>18&#45;&gt;17</title>
<path fill="none" stroke="black" d="M594.003,-142C602.028,-142 610.967,-142 619.531,-142"/>
<polygon fill="black" stroke="black" points="619.705,-145.5 629.705,-142 619.705,-138.5 619.705,-145.5"/>
</g>
<!-- 17&#45;&gt;6 -->
<g id="edge36" class="edge"><title>17&#45;&gt;6</title>
<path fill="none" stroke="black" d="M684.003,-142C692.028,-142 700.967,-142 709.531,-142"/>
<polygon fill="black" stroke="black" points="709.705,-145.5 719.705,-142 709.705,-138.5 709.705,-145.5"/>
</g>
</g>
</svg>
